{
	"patcher" : 	{
		"fileversion" : 1,
		"rect" : [ 149.0, 59.0, 1440.0, 798.0 ],
		"bgcolor" : [ 1.0, 1.0, 1.0, 0.0 ],
		"bglocked" : 0,
		"defrect" : [ 149.0, 59.0, 1440.0, 798.0 ],
		"openrect" : [ 0.0, 0.0, 0.0, 0.0 ],
		"openinpresentation" : 1,
		"default_fontsize" : 12.0,
		"default_fontface" : 0,
		"default_fontname" : "Arial",
		"gridonopen" : 0,
		"gridsize" : [ 15.0, 15.0 ],
		"gridsnaponopen" : 0,
		"toolbarvisible" : 1,
		"boxanimatetime" : 200,
		"imprint" : 0,
		"enablehscroll" : 1,
		"enablevscroll" : 1,
		"devicewidth" : 0.0,
		"boxes" : [ 			{
				"box" : 				{
					"maxclass" : "newobj",
					"text" : "p modal",
					"outlettype" : [ "", "", "", "" ],
					"patching_rect" : [ 157.0, 323.5, 59.5, 20.0 ],
					"fontname" : "Arial",
					"id" : "obj-34",
					"numinlets" : 3,
					"fontsize" : 12.0,
					"numoutlets" : 4,
					"patcher" : 					{
						"fileversion" : 1,
						"rect" : [ 25.0, 69.0, 640.0, 480.0 ],
						"bglocked" : 0,
						"defrect" : [ 25.0, 69.0, 640.0, 480.0 ],
						"openrect" : [ 0.0, 0.0, 0.0, 0.0 ],
						"openinpresentation" : 0,
						"default_fontsize" : 12.0,
						"default_fontface" : 0,
						"default_fontname" : "Arial",
						"gridonopen" : 0,
						"gridsize" : [ 15.0, 15.0 ],
						"gridsnaponopen" : 0,
						"toolbarvisible" : 1,
						"boxanimatetime" : 200,
						"imprint" : 0,
						"enablehscroll" : 1,
						"enablevscroll" : 1,
						"devicewidth" : 0.0,
						"boxes" : [ 							{
								"box" : 								{
									"maxclass" : "newobj",
									"text" : "gate 6",
									"outlettype" : [ "", "", "", "", "", "" ],
									"patching_rect" : [ 50.0, 156.5, 86.5, 20.0 ],
									"fontname" : "Arial",
									"id" : "obj-8",
									"numinlets" : 2,
									"fontsize" : 12.0,
									"numoutlets" : 6
								}

							}
, 							{
								"box" : 								{
									"maxclass" : "newobj",
									"text" : "gate 6",
									"outlettype" : [ "", "", "", "", "", "" ],
									"patching_rect" : [ 142.0, 158.5, 86.5, 20.0 ],
									"fontname" : "Arial",
									"id" : "obj-6",
									"numinlets" : 2,
									"fontsize" : 12.0,
									"numoutlets" : 6
								}

							}
, 							{
								"box" : 								{
									"maxclass" : "message",
									"text" : "clear",
									"outlettype" : [ "" ],
									"patching_rect" : [ 368.498962, 288.565735, 37.0, 18.0 ],
									"fontname" : "Arial",
									"id" : "obj-57",
									"numinlets" : 2,
									"fontsize" : 12.0,
									"numoutlets" : 1
								}

							}
, 							{
								"box" : 								{
									"maxclass" : "button",
									"outlettype" : [ "bang" ],
									"patching_rect" : [ 355.147156, 239.720367, 20.0, 20.0 ],
									"id" : "obj-56",
									"numinlets" : 1,
									"numoutlets" : 1
								}

							}
, 							{
								"box" : 								{
									"maxclass" : "button",
									"outlettype" : [ "bang" ],
									"patching_rect" : [ 380.147156, 239.720367, 20.0, 20.0 ],
									"id" : "obj-55",
									"numinlets" : 1,
									"numoutlets" : 1
								}

							}
, 							{
								"box" : 								{
									"maxclass" : "button",
									"outlettype" : [ "bang" ],
									"patching_rect" : [ 417.147156, 200.720367, 20.0, 20.0 ],
									"id" : "obj-54",
									"numinlets" : 1,
									"numoutlets" : 1
								}

							}
, 							{
								"box" : 								{
									"maxclass" : "message",
									"text" : "1",
									"outlettype" : [ "" ],
									"patching_rect" : [ 268.147125, 203.720367, 32.5, 18.0 ],
									"fontname" : "Arial",
									"id" : "obj-44",
									"numinlets" : 2,
									"fontsize" : 12.0,
									"numoutlets" : 1
								}

							}
, 							{
								"box" : 								{
									"maxclass" : "message",
									"text" : "0",
									"outlettype" : [ "" ],
									"patching_rect" : [ 322.147156, 206.720367, 32.5, 18.0 ],
									"fontname" : "Arial",
									"id" : "obj-39",
									"numinlets" : 2,
									"fontsize" : 12.0,
									"numoutlets" : 1
								}

							}
, 							{
								"box" : 								{
									"maxclass" : "toggle",
									"outlettype" : [ "int" ],
									"patching_rect" : [ 541.147156, 292.720367, 20.0, 20.0 ],
									"id" : "obj-37",
									"numinlets" : 1,
									"numoutlets" : 1
								}

							}
, 							{
								"box" : 								{
									"maxclass" : "message",
									"text" : "active $1",
									"outlettype" : [ "" ],
									"patching_rect" : [ 541.147156, 320.720367, 59.0, 18.0 ],
									"fontname" : "Arial",
									"id" : "obj-35",
									"numinlets" : 2,
									"fontsize" : 12.0,
									"numoutlets" : 1
								}

							}
, 							{
								"box" : 								{
									"maxclass" : "newobj",
									"text" : "sel 0 1 2 3 4 5 6",
									"outlettype" : [ "bang", "bang", "bang", "bang", "bang", "bang", "bang", "" ],
									"patching_rect" : [ 253.147125, 73.720367, 113.5, 20.0 ],
									"fontname" : "Arial",
									"id" : "obj-33",
									"numinlets" : 1,
									"fontsize" : 12.0,
									"numoutlets" : 8
								}

							}
, 							{
								"box" : 								{
									"maxclass" : "message",
									"text" : "clear, append 0, append 1",
									"outlettype" : [ "" ],
									"patching_rect" : [ 212.357483, 297.207855, 149.0, 18.0 ],
									"fontname" : "Arial",
									"id" : "obj-32",
									"numinlets" : 2,
									"fontsize" : 12.0,
									"numoutlets" : 1
								}

							}
, 							{
								"box" : 								{
									"maxclass" : "message",
									"text" : "clear, append 0, append 1, append 2, append 3, append 4, append 5",
									"outlettype" : [ "" ],
									"patching_rect" : [ 410.949524, 243.524841, 376.0, 18.0 ],
									"fontname" : "Arial",
									"id" : "obj-31",
									"numinlets" : 2,
									"fontsize" : 12.0,
									"numoutlets" : 1
								}

							}
, 							{
								"box" : 								{
									"maxclass" : "inlet",
									"outlettype" : [ "int" ],
									"patching_rect" : [ 49.715714, 41.0, 25.0, 25.0 ],
									"presentation" : 1,
									"id" : "obj-10",
									"numinlets" : 0,
									"numoutlets" : 1,
									"presentation_rect" : [ 235.715714, 250.5, 25.0, 25.0 ],
									"comment" : ""
								}

							}
, 							{
								"box" : 								{
									"maxclass" : "inlet",
									"outlettype" : [ "int" ],
									"patching_rect" : [ 117.0, 40.0, 25.0, 25.0 ],
									"presentation" : 1,
									"id" : "obj-21",
									"numinlets" : 0,
									"numoutlets" : 1,
									"presentation_rect" : [ 223.0, 250.5, 25.0, 25.0 ],
									"comment" : ""
								}

							}
, 							{
								"box" : 								{
									"maxclass" : "inlet",
									"outlettype" : [ "" ],
									"patching_rect" : [ 209.0, 40.0, 25.0, 25.0 ],
									"presentation" : 1,
									"id" : "obj-22",
									"numinlets" : 0,
									"numoutlets" : 1,
									"presentation_rect" : [ 315.0, 250.5, 25.0, 25.0 ],
									"comment" : ""
								}

							}
, 							{
								"box" : 								{
									"maxclass" : "outlet",
									"patching_rect" : [ 45.0, 337.207886, 25.0, 25.0 ],
									"presentation" : 1,
									"id" : "obj-23",
									"numinlets" : 1,
									"numoutlets" : 0,
									"presentation_rect" : [ 151.0, 547.707886, 25.0, 25.0 ],
									"comment" : ""
								}

							}
, 							{
								"box" : 								{
									"maxclass" : "outlet",
									"patching_rect" : [ 137.0, 337.207886, 25.0, 25.0 ],
									"presentation" : 1,
									"id" : "obj-24",
									"numinlets" : 1,
									"numoutlets" : 0,
									"presentation_rect" : [ 243.0, 547.707886, 25.0, 25.0 ],
									"comment" : ""
								}

							}
, 							{
								"box" : 								{
									"maxclass" : "outlet",
									"patching_rect" : [ 359.60199, 353.207886, 25.0, 25.0 ],
									"presentation" : 1,
									"id" : "obj-25",
									"numinlets" : 1,
									"numoutlets" : 0,
									"presentation_rect" : [ 424.60199, 547.707886, 25.0, 25.0 ],
									"comment" : ""
								}

							}
, 							{
								"box" : 								{
									"maxclass" : "outlet",
									"patching_rect" : [ 537.147156, 353.207886, 25.0, 25.0 ],
									"presentation" : 1,
									"id" : "obj-29",
									"numinlets" : 1,
									"numoutlets" : 0,
									"presentation_rect" : [ 448.147156, 547.707886, 25.0, 25.0 ],
									"comment" : ""
								}

							}
 ],
						"lines" : [ 							{
								"patchline" : 								{
									"source" : [ "obj-8", 4 ],
									"destination" : [ "obj-23", 0 ],
									"hidden" : 0,
									"midpoints" : [  ]
								}

							}
, 							{
								"patchline" : 								{
									"source" : [ "obj-8", 5 ],
									"destination" : [ "obj-23", 0 ],
									"hidden" : 0,
									"midpoints" : [  ]
								}

							}
, 							{
								"patchline" : 								{
									"source" : [ "obj-6", 2 ],
									"destination" : [ "obj-24", 0 ],
									"hidden" : 0,
									"midpoints" : [  ]
								}

							}
, 							{
								"patchline" : 								{
									"source" : [ "obj-6", 3 ],
									"destination" : [ "obj-24", 0 ],
									"hidden" : 0,
									"midpoints" : [  ]
								}

							}
, 							{
								"patchline" : 								{
									"source" : [ "obj-57", 0 ],
									"destination" : [ "obj-25", 0 ],
									"hidden" : 0,
									"midpoints" : [  ]
								}

							}
, 							{
								"patchline" : 								{
									"source" : [ "obj-56", 0 ],
									"destination" : [ "obj-32", 0 ],
									"hidden" : 0,
									"midpoints" : [  ]
								}

							}
, 							{
								"patchline" : 								{
									"source" : [ "obj-55", 0 ],
									"destination" : [ "obj-57", 0 ],
									"hidden" : 0,
									"midpoints" : [  ]
								}

							}
, 							{
								"patchline" : 								{
									"source" : [ "obj-54", 0 ],
									"destination" : [ "obj-31", 0 ],
									"hidden" : 0,
									"midpoints" : [  ]
								}

							}
, 							{
								"patchline" : 								{
									"source" : [ "obj-44", 0 ],
									"destination" : [ "obj-37", 0 ],
									"hidden" : 0,
									"midpoints" : [  ]
								}

							}
, 							{
								"patchline" : 								{
									"source" : [ "obj-39", 0 ],
									"destination" : [ "obj-37", 0 ],
									"hidden" : 0,
									"midpoints" : [  ]
								}

							}
, 							{
								"patchline" : 								{
									"source" : [ "obj-37", 0 ],
									"destination" : [ "obj-35", 0 ],
									"hidden" : 0,
									"midpoints" : [  ]
								}

							}
, 							{
								"patchline" : 								{
									"source" : [ "obj-35", 0 ],
									"destination" : [ "obj-29", 0 ],
									"hidden" : 0,
									"midpoints" : [  ]
								}

							}
, 							{
								"patchline" : 								{
									"source" : [ "obj-33", 0 ],
									"destination" : [ "obj-56", 0 ],
									"hidden" : 0,
									"midpoints" : [  ]
								}

							}
, 							{
								"patchline" : 								{
									"source" : [ "obj-33", 1 ],
									"destination" : [ "obj-55", 0 ],
									"hidden" : 0,
									"midpoints" : [  ]
								}

							}
, 							{
								"patchline" : 								{
									"source" : [ "obj-33", 2 ],
									"destination" : [ "obj-55", 0 ],
									"hidden" : 0,
									"midpoints" : [  ]
								}

							}
, 							{
								"patchline" : 								{
									"source" : [ "obj-33", 3 ],
									"destination" : [ "obj-55", 0 ],
									"hidden" : 0,
									"midpoints" : [  ]
								}

							}
, 							{
								"patchline" : 								{
									"source" : [ "obj-33", 4 ],
									"destination" : [ "obj-55", 0 ],
									"hidden" : 0,
									"midpoints" : [  ]
								}

							}
, 							{
								"patchline" : 								{
									"source" : [ "obj-33", 5 ],
									"destination" : [ "obj-54", 0 ],
									"hidden" : 0,
									"midpoints" : [  ]
								}

							}
, 							{
								"patchline" : 								{
									"source" : [ "obj-33", 6 ],
									"destination" : [ "obj-54", 0 ],
									"hidden" : 0,
									"midpoints" : [  ]
								}

							}
, 							{
								"patchline" : 								{
									"source" : [ "obj-33", 1 ],
									"destination" : [ "obj-44", 0 ],
									"hidden" : 0,
									"midpoints" : [  ]
								}

							}
, 							{
								"patchline" : 								{
									"source" : [ "obj-33", 0 ],
									"destination" : [ "obj-39", 0 ],
									"hidden" : 0,
									"midpoints" : [  ]
								}

							}
, 							{
								"patchline" : 								{
									"source" : [ "obj-33", 2 ],
									"destination" : [ "obj-39", 0 ],
									"hidden" : 0,
									"midpoints" : [  ]
								}

							}
, 							{
								"patchline" : 								{
									"source" : [ "obj-33", 3 ],
									"destination" : [ "obj-39", 0 ],
									"hidden" : 0,
									"midpoints" : [  ]
								}

							}
, 							{
								"patchline" : 								{
									"source" : [ "obj-33", 4 ],
									"destination" : [ "obj-39", 0 ],
									"hidden" : 0,
									"midpoints" : [  ]
								}

							}
, 							{
								"patchline" : 								{
									"source" : [ "obj-33", 5 ],
									"destination" : [ "obj-39", 0 ],
									"hidden" : 0,
									"midpoints" : [  ]
								}

							}
, 							{
								"patchline" : 								{
									"source" : [ "obj-33", 6 ],
									"destination" : [ "obj-39", 0 ],
									"hidden" : 0,
									"midpoints" : [  ]
								}

							}
, 							{
								"patchline" : 								{
									"source" : [ "obj-32", 0 ],
									"destination" : [ "obj-25", 0 ],
									"hidden" : 0,
									"midpoints" : [  ]
								}

							}
, 							{
								"patchline" : 								{
									"source" : [ "obj-31", 0 ],
									"destination" : [ "obj-25", 0 ],
									"hidden" : 0,
									"midpoints" : [  ]
								}

							}
, 							{
								"patchline" : 								{
									"source" : [ "obj-22", 0 ],
									"destination" : [ "obj-6", 1 ],
									"hidden" : 0,
									"midpoints" : [  ]
								}

							}
, 							{
								"patchline" : 								{
									"source" : [ "obj-21", 0 ],
									"destination" : [ "obj-8", 1 ],
									"hidden" : 0,
									"midpoints" : [  ]
								}

							}
, 							{
								"patchline" : 								{
									"source" : [ "obj-10", 0 ],
									"destination" : [ "obj-8", 0 ],
									"hidden" : 0,
									"midpoints" : [  ]
								}

							}
, 							{
								"patchline" : 								{
									"source" : [ "obj-10", 0 ],
									"destination" : [ "obj-6", 0 ],
									"hidden" : 0,
									"midpoints" : [  ]
								}

							}
, 							{
								"patchline" : 								{
									"source" : [ "obj-10", 0 ],
									"destination" : [ "obj-33", 0 ],
									"hidden" : 0,
									"midpoints" : [  ]
								}

							}
 ]
					}
,
					"saved_object_attributes" : 					{
						"default_fontname" : "Arial",
						"fontname" : "Arial",
						"default_fontsize" : 12.0,
						"globalpatchername" : "",
						"fontface" : 0,
						"fontsize" : 12.0,
						"default_fontface" : 0
					}

				}

			}
, 			{
				"box" : 				{
					"maxclass" : "button",
					"outlettype" : [ "bang" ],
					"patching_rect" : [ 68.059685, 435.566376, 20.0, 20.0 ],
					"id" : "obj-84",
					"numinlets" : 1,
					"numoutlets" : 1
				}

			}
, 			{
				"box" : 				{
					"maxclass" : "button",
					"outlettype" : [ "bang" ],
					"patching_rect" : [ 551.191772, 492.452637, 20.0, 20.0 ],
					"id" : "obj-82",
					"numinlets" : 1,
					"numoutlets" : 1
				}

			}
, 			{
				"box" : 				{
					"maxclass" : "button",
					"outlettype" : [ "bang" ],
					"patching_rect" : [ 448.739777, 489.037567, 20.0, 20.0 ],
					"id" : "obj-80",
					"numinlets" : 1,
					"numoutlets" : 1
				}

			}
, 			{
				"box" : 				{
					"maxclass" : "comment",
					"text" : "speed",
					"patching_rect" : [ 31.0, 98.0, 107.0, 16.0 ],
					"fontname" : "Gill Sans",
					"presentation" : 1,
					"id" : "obj-69",
					"textcolor" : [ 0.917647, 0.917647, 0.917647, 1.0 ],
					"frgb" : [ 0.917647, 0.917647, 0.917647, 1.0 ],
					"numinlets" : 1,
					"fontsize" : 8.0,
					"numoutlets" : 0,
					"presentation_rect" : [ 25.584932, 87.683014, 29.0, 16.0 ]
				}

			}
, 			{
				"box" : 				{
					"maxclass" : "comment",
					"text" : "step",
					"patching_rect" : [ 31.0, 78.0, 107.0, 16.0 ],
					"fontname" : "Gill Sans",
					"presentation" : 1,
					"id" : "obj-68",
					"textcolor" : [ 0.917647, 0.917647, 0.917647, 1.0 ],
					"frgb" : [ 0.917647, 0.917647, 0.917647, 1.0 ],
					"numinlets" : 1,
					"fontsize" : 8.0,
					"numoutlets" : 0,
					"presentation_rect" : [ 28.267946, 70.0, 24.0, 16.0 ]
				}

			}
, 			{
				"box" : 				{
					"maxclass" : "newobj",
					"text" : "pack stepperSpeed 1 1",
					"outlettype" : [ "" ],
					"patching_rect" : [ 561.656677, 525.58844, 134.0, 20.0 ],
					"fontname" : "Arial",
					"id" : "obj-62",
					"numinlets" : 3,
					"fontsize" : 12.0,
					"numoutlets" : 1
				}

			}
, 			{
				"box" : 				{
					"maxclass" : "newobj",
					"text" : "pack stepperStep 1 1",
					"outlettype" : [ "" ],
					"patching_rect" : [ 425.241638, 526.173401, 124.0, 20.0 ],
					"fontname" : "Arial",
					"id" : "obj-61",
					"numinlets" : 3,
					"fontsize" : 12.0,
					"numoutlets" : 1
				}

			}
, 			{
				"box" : 				{
					"maxclass" : "live.numbox",
					"hint" : "stepper speed in revolutions per minute (assuming full step)",
					"varname" : "speed",
					"outlettype" : [ "", "float" ],
					"patching_rect" : [ 587.0, 472.0, 32.0, 14.0 ],
					"fontname" : "Gill Sans",
					"presentation" : 1,
					"id" : "obj-59",
					"parameter_enable" : 1,
					"numinlets" : 1,
					"fontface" : 0,
					"activebgcolor" : [ 0.909804, 0.909804, 0.909804, 0.0 ],
					"fontsize" : 9.0,
					"bordercolor" : [ 0.27451, 0.32549, 0.4, 0.0 ],
					"numoutlets" : 2,
					"presentation_rect" : [ 24.0, 98.0, 32.0, 14.0 ],
					"saved_attribute_attributes" : 					{
						"valueof" : 						{
							"parameter_longname" : "live.numbox[106]",
							"parameter_modmin" : 0.0,
							"parameter_linknames" : 0,
							"parameter_modmode" : 0,
							"parameter_info" : "",
							"parameter_units" : "",
							"parameter_order" : 0,
							"parameter_defer" : 0,
							"parameter_speedlim" : 1.0,
							"parameter_invisible" : 0,
							"parameter_steps" : 0,
							"parameter_annotation_name" : "",
							"parameter_exponent" : 1.0,
							"parameter_unitstyle" : 0,
							"parameter_mmax" : 4000.0,
							"parameter_mmin" : 0.0,
							"parameter_type" : 0,
							"parameter_initial_enable" : 0,
							"parameter_shortname" : "live.numbox",
							"parameter_modmax" : 127.0
						}

					}

				}

			}
, 			{
				"box" : 				{
					"maxclass" : "live.numbox",
					"hint" : "number of steps, + and -",
					"varname" : "live.numbox",
					"outlettype" : [ "", "float" ],
					"patching_rect" : [ 504.0, 474.0, 31.0, 14.0 ],
					"fontname" : "Gill Sans",
					"presentation" : 1,
					"id" : "obj-58",
					"parameter_enable" : 1,
					"numinlets" : 1,
					"fontface" : 0,
					"activebgcolor" : [ 0.909804, 0.909804, 0.909804, 0.0 ],
					"fontsize" : 9.0,
					"bordercolor" : [ 0.27451, 0.32549, 0.4, 0.0 ],
					"numoutlets" : 2,
					"presentation_rect" : [ 23.683014, 79.0, 31.0, 14.0 ],
					"saved_attribute_attributes" : 					{
						"valueof" : 						{
							"parameter_longname" : "live.numbox[107]",
							"parameter_modmin" : 0.0,
							"parameter_linknames" : 0,
							"parameter_modmode" : 0,
							"parameter_info" : "",
							"parameter_units" : "",
							"parameter_order" : 0,
							"parameter_defer" : 0,
							"parameter_speedlim" : 1.0,
							"parameter_invisible" : 0,
							"parameter_steps" : 0,
							"parameter_annotation_name" : "",
							"parameter_exponent" : 1.0,
							"parameter_unitstyle" : 0,
							"parameter_mmax" : 65536.0,
							"parameter_mmin" : -65536.0,
							"parameter_type" : 0,
							"parameter_initial_enable" : 0,
							"parameter_shortname" : "live.numbox",
							"parameter_modmax" : 127.0
						}

					}

				}

			}
, 			{
				"box" : 				{
					"maxclass" : "newobj",
					"text" : "t 6",
					"outlettype" : [ "int" ],
					"patching_rect" : [ 114.0, 433.0, 24.0, 20.0 ],
					"fontname" : "Arial",
					"id" : "obj-51",
					"numinlets" : 1,
					"fontsize" : 12.0,
					"numoutlets" : 1
				}

			}
, 			{
				"box" : 				{
					"maxclass" : "newobj",
					"text" : "t 5",
					"outlettype" : [ "int" ],
					"patching_rect" : [ 93.0, 433.0, 24.0, 20.0 ],
					"fontname" : "Arial",
					"id" : "obj-50",
					"numinlets" : 1,
					"fontsize" : 12.0,
					"numoutlets" : 1
				}

			}
, 			{
				"box" : 				{
					"maxclass" : "newobj",
					"text" : "pack pinMode 1 1",
					"outlettype" : [ "" ],
					"patching_rect" : [ 80.0, 466.830139, 105.0, 20.0 ],
					"fontname" : "Arial",
					"id" : "obj-49",
					"numinlets" : 3,
					"fontsize" : 12.0,
					"numoutlets" : 1
				}

			}
, 			{
				"box" : 				{
					"maxclass" : "newobj",
					"text" : "route 5 6",
					"outlettype" : [ "", "", "" ],
					"patching_rect" : [ 91.0, 369.0, 58.0, 20.0 ],
					"fontname" : "Arial",
					"id" : "obj-48",
					"numinlets" : 1,
					"fontsize" : 12.0,
					"numoutlets" : 3
				}

			}
, 			{
				"box" : 				{
					"maxclass" : "toggle",
					"outlettype" : [ "int" ],
					"patching_rect" : [ 47.0, 78.0, 20.0, 20.0 ],
					"id" : "obj-30",
					"numinlets" : 1,
					"numoutlets" : 1
				}

			}
, 			{
				"box" : 				{
					"maxclass" : "umenu",
					"varname" : "mode[1]",
					"outlettype" : [ "int", "", "" ],
					"types" : [  ],
					"patching_rect" : [ 80.901917, 184.222458, 23.0, 16.0 ],
					"fontname" : "Trebuchet MS",
					"presentation" : 1,
					"id" : "obj-28",
					"rounded" : 2,
					"arrow" : 0,
					"numinlets" : 1,
					"fontsize" : 8.0,
					"numoutlets" : 3,
					"presentation_rect" : [ 30.0, 18.0, 18.0, 16.0 ],
					"items" : [ 0, ",", 1, ",", 2, ",", 3, ",", 4, ",", 5 ]
				}

			}
, 			{
				"box" : 				{
					"maxclass" : "message",
					"text" : "text DIR, texton STEP",
					"outlettype" : [ "" ],
					"patching_rect" : [ 136.0, 224.0, 128.0, 18.0 ],
					"fontname" : "Arial",
					"id" : "obj-26",
					"numinlets" : 2,
					"fontsize" : 12.0,
					"numoutlets" : 1
				}

			}
, 			{
				"box" : 				{
					"maxclass" : "newobj",
					"text" : "zl iter 2",
					"outlettype" : [ "", "" ],
					"patching_rect" : [ 613.385254, 188.611221, 49.0, 20.0 ],
					"fontname" : "Arial",
					"id" : "obj-1",
					"numinlets" : 2,
					"fontsize" : 12.0,
					"numoutlets" : 2
				}

			}
, 			{
				"box" : 				{
					"maxclass" : "message",
					"text" : "servoConfig $1 $2",
					"outlettype" : [ "" ],
					"patching_rect" : [ 564.0, 404.0, 108.0, 18.0 ],
					"fontname" : "Arial",
					"id" : "obj-20",
					"numinlets" : 2,
					"fontsize" : 12.0,
					"numoutlets" : 1
				}

			}
, 			{
				"box" : 				{
					"maxclass" : "umenu",
					"varname" : "mode",
					"outlettype" : [ "int", "", "" ],
					"types" : [  ],
					"patching_rect" : [ 92.679459, 319.732056, 33.0, 16.0 ],
					"fontname" : "Trebuchet MS",
					"presentation" : 1,
					"id" : "obj-19",
					"rounded" : 2,
					"arrow" : 0,
					"numinlets" : 1,
					"fontsize" : 8.0,
					"numoutlets" : 3,
					"presentation_rect" : [ 30.0, 1.0, 18.0, 16.0 ],
					"items" : [ "in", ",", "out", ",", "inA", ",", "pwm", ",", "serv", ",", "stepStep", ",", "dirStep" ]
				}

			}
, 			{
				"box" : 				{
					"maxclass" : "newobj",
					"varname" : "u677010083",
					"text" : "autopattr",
					"outlettype" : [ "", "", "", "" ],
					"patching_rect" : [ 742.0, 98.0, 59.5, 20.0 ],
					"fontname" : "Arial",
					"id" : "obj-18",
					"numinlets" : 1,
					"fontsize" : 12.0,
					"numoutlets" : 4,
					"restore" : 					{
						"mode" : [ 5 ]
					}

				}

			}
, 			{
				"box" : 				{
					"maxclass" : "newobj",
					"text" : "route int float",
					"outlettype" : [ "", "", "" ],
					"patching_rect" : [ 107.0, 52.0, 80.0, 20.0 ],
					"fontname" : "Arial",
					"id" : "obj-17",
					"numinlets" : 1,
					"fontsize" : 12.0,
					"numoutlets" : 3
				}

			}
, 			{
				"box" : 				{
					"maxclass" : "newobj",
					"text" : "t 0",
					"outlettype" : [ "int" ],
					"patching_rect" : [ 467.829956, 328.48999, 24.0, 20.0 ],
					"fontname" : "Arial",
					"id" : "obj-16",
					"numinlets" : 1,
					"fontsize" : 12.0,
					"numoutlets" : 1
				}

			}
, 			{
				"box" : 				{
					"maxclass" : "newobj",
					"text" : "t 1",
					"outlettype" : [ "int" ],
					"patching_rect" : [ 436.369934, 328.48999, 24.0, 20.0 ],
					"fontname" : "Arial",
					"id" : "obj-15",
					"numinlets" : 1,
					"fontsize" : 12.0,
					"numoutlets" : 1
				}

			}
, 			{
				"box" : 				{
					"maxclass" : "newobj",
					"text" : "sel 2",
					"outlettype" : [ "bang", "" ],
					"patching_rect" : [ 437.579956, 282.509949, 36.0, 20.0 ],
					"fontname" : "Arial",
					"id" : "obj-14",
					"numinlets" : 2,
					"fontsize" : 12.0,
					"numoutlets" : 2
				}

			}
, 			{
				"box" : 				{
					"maxclass" : "newobj",
					"text" : "OSC-route /digOut /modeOld /pwm /analogIn /digIn /mode /analogWrite /digitalWrite /servoConfig /info /stepperNum /stepperStep /stepperSpeed",
					"linecount" : 2,
					"outlettype" : [ "", "", "", "", "", "", "", "", "", "", "", "", "", "" ],
					"patching_rect" : [ 174.0, 82.0, 556.0, 34.0 ],
					"fontname" : "Arial",
					"id" : "obj-9",
					"numinlets" : 1,
					"fontsize" : 12.0,
					"numoutlets" : 14
				}

			}
, 			{
				"box" : 				{
					"maxclass" : "inlet",
					"outlettype" : [ "" ],
					"patching_rect" : [ 103.0, 15.0, 25.0, 25.0 ],
					"id" : "obj-4",
					"numinlets" : 0,
					"numoutlets" : 1,
					"comment" : ""
				}

			}
, 			{
				"box" : 				{
					"maxclass" : "message",
					"text" : "setanalogIns $1",
					"outlettype" : [ "" ],
					"patching_rect" : [ 429.0, 401.0, 95.0, 18.0 ],
					"fontname" : "Arial",
					"id" : "obj-3",
					"numinlets" : 2,
					"fontsize" : 12.0,
					"numoutlets" : 1
				}

			}
, 			{
				"box" : 				{
					"maxclass" : "live.text",
					"varname" : "live.text",
					"outlettype" : [ "", "" ],
					"patching_rect" : [ 415.0, 367.0, 25.0, 20.0 ],
					"fontname" : "Trebuchet MS",
					"id" : "obj-2",
					"parameter_enable" : 1,
					"numinlets" : 1,
					"fontface" : 0,
					"fontsize" : 8.0,
					"text" : "in",
					"texton" : "IN!",
					"numoutlets" : 2,
					"saved_attribute_attributes" : 					{
						"valueof" : 						{
							"parameter_longname" : "live.toggle[188]",
							"parameter_modmin" : 0.0,
							"parameter_linknames" : 0,
							"parameter_modmode" : 0,
							"parameter_info" : "",
							"parameter_units" : "",
							"parameter_order" : 0,
							"parameter_defer" : 0,
							"parameter_speedlim" : 1.0,
							"parameter_invisible" : 0,
							"parameter_steps" : 0,
							"parameter_annotation_name" : "",
							"parameter_enum" : [ "val1", "val2" ],
							"parameter_exponent" : 1.0,
							"parameter_unitstyle" : 10,
							"parameter_mmax" : 1.0,
							"parameter_mmin" : 0.0,
							"parameter_type" : 2,
							"parameter_initial_enable" : 0,
							"parameter_shortname" : "live.toggle",
							"parameter_modmax" : 127.0
						}

					}

				}

			}
, 			{
				"box" : 				{
					"maxclass" : "outlet",
					"patching_rect" : [ 153.0, 618.0, 25.0, 25.0 ],
					"id" : "obj-13",
					"numinlets" : 1,
					"numoutlets" : 0,
					"comment" : ""
				}

			}
, 			{
				"box" : 				{
					"maxclass" : "message",
					"text" : "digitalWrite $1",
					"outlettype" : [ "" ],
					"patching_rect" : [ 10.0, 402.0, 86.0, 18.0 ],
					"fontname" : "Arial",
					"id" : "obj-12",
					"numinlets" : 2,
					"fontsize" : 12.0,
					"numoutlets" : 1
				}

			}
, 			{
				"box" : 				{
					"maxclass" : "live.text",
					"varname" : "live.text[1]",
					"outlettype" : [ "", "" ],
					"patching_rect" : [ 128.0, 179.0, 25.0, 20.0 ],
					"fontname" : "Trebuchet MS",
					"presentation" : 1,
					"id" : "obj-11",
					"parameter_enable" : 1,
					"numinlets" : 1,
					"fontface" : 0,
					"fontsize" : 8.0,
					"text" : "out",
					"texton" : "OUT",
					"numoutlets" : 2,
					"presentation_rect" : [ 30.0, 34.611572, 18.0, 15.0 ],
					"saved_attribute_attributes" : 					{
						"valueof" : 						{
							"parameter_longname" : "live.toggle[259]",
							"parameter_modmin" : 0.0,
							"parameter_linknames" : 0,
							"parameter_modmode" : 0,
							"parameter_info" : "",
							"parameter_units" : "",
							"parameter_order" : 0,
							"parameter_defer" : 0,
							"parameter_speedlim" : 1.0,
							"parameter_invisible" : 0,
							"parameter_steps" : 0,
							"parameter_annotation_name" : "",
							"parameter_enum" : [ "val1", "val2" ],
							"parameter_exponent" : 1.0,
							"parameter_unitstyle" : 10,
							"parameter_mmax" : 1.0,
							"parameter_mmin" : 0.0,
							"parameter_type" : 2,
							"parameter_initial_enable" : 0,
							"parameter_shortname" : "live.toggle",
							"parameter_modmax" : 127.0
						}

					}

				}

			}
, 			{
				"box" : 				{
					"maxclass" : "message",
					"text" : "analogWrite $1",
					"outlettype" : [ "" ],
					"patching_rect" : [ 225.0, 399.0, 91.0, 18.0 ],
					"fontname" : "Arial",
					"id" : "obj-7",
					"numinlets" : 2,
					"fontsize" : 12.0,
					"numoutlets" : 1
				}

			}
, 			{
				"box" : 				{
					"maxclass" : "message",
					"text" : "pinMode $1",
					"outlettype" : [ "" ],
					"patching_rect" : [ 226.683014, 456.075348, 73.0, 18.0 ],
					"fontname" : "Arial",
					"id" : "obj-5",
					"numinlets" : 2,
					"fontsize" : 12.0,
					"numoutlets" : 1
				}

			}
, 			{
				"box" : 				{
					"maxclass" : "live.numbox",
					"hint" : "pwm duty cycle, or servo position",
					"varname" : "live.numbox[2]",
					"outlettype" : [ "", "float" ],
					"patching_rect" : [ 217.818237, 185.958679, 35.0, 13.0 ],
					"fontname" : "Gill Sans",
					"presentation" : 1,
					"id" : "obj-480",
					"parameter_enable" : 1,
					"numinlets" : 1,
					"activebgcolor" : [ 0.909804, 0.909804, 0.909804, 0.0 ],
					"fontsize" : 8.0,
					"bordercolor" : [ 0.27451, 0.32549, 0.4, 0.0 ],
					"numoutlets" : 2,
					"presentation_rect" : [ 22.0, 60.570251, 35.0, 13.0 ],
					"saved_attribute_attributes" : 					{
						"valueof" : 						{
							"parameter_longname" : "pwm[58]",
							"parameter_modmin" : 0.0,
							"parameter_linknames" : 0,
							"parameter_modmode" : 0,
							"parameter_info" : "",
							"parameter_units" : "",
							"parameter_order" : 0,
							"parameter_defer" : 0,
							"parameter_speedlim" : 1.0,
							"parameter_invisible" : 0,
							"parameter_steps" : 0,
							"parameter_annotation_name" : "",
							"parameter_exponent" : 1.0,
							"parameter_unitstyle" : 1,
							"parameter_mmax" : 1.0,
							"parameter_mmin" : 0.0,
							"parameter_type" : 0,
							"parameter_initial_enable" : 0,
							"parameter_shortname" : "pwm",
							"parameter_modmax" : 127.0
						}

					}

				}

			}
 ],
		"lines" : [ 			{
				"patchline" : 				{
					"source" : [ "obj-9", 12 ],
					"destination" : [ "obj-59", 0 ],
					"hidden" : 0,
					"midpoints" : [  ]
				}

			}
, 			{
				"patchline" : 				{
					"source" : [ "obj-9", 11 ],
					"destination" : [ "obj-58", 0 ],
					"hidden" : 0,
					"midpoints" : [  ]
				}

			}
, 			{
				"patchline" : 				{
					"source" : [ "obj-9", 2 ],
					"destination" : [ "obj-480", 0 ],
					"hidden" : 0,
					"midpoints" : [  ]
				}

			}
, 			{
				"patchline" : 				{
					"source" : [ "obj-9", 6 ],
					"destination" : [ "obj-480", 0 ],
					"hidden" : 0,
					"midpoints" : [  ]
				}

			}
, 			{
				"patchline" : 				{
					"source" : [ "obj-9", 10 ],
					"destination" : [ "obj-28", 0 ],
					"hidden" : 0,
					"midpoints" : [  ]
				}

			}
, 			{
				"patchline" : 				{
					"source" : [ "obj-9", 8 ],
					"destination" : [ "obj-20", 0 ],
					"hidden" : 0,
					"midpoints" : [  ]
				}

			}
, 			{
				"patchline" : 				{
					"source" : [ "obj-9", 3 ],
					"destination" : [ "obj-2", 0 ],
					"hidden" : 0,
					"midpoints" : [  ]
				}

			}
, 			{
				"patchline" : 				{
					"source" : [ "obj-9", 5 ],
					"destination" : [ "obj-19", 0 ],
					"hidden" : 0,
					"midpoints" : [  ]
				}

			}
, 			{
				"patchline" : 				{
					"source" : [ "obj-9", 0 ],
					"destination" : [ "obj-11", 0 ],
					"hidden" : 0,
					"midpoints" : [  ]
				}

			}
, 			{
				"patchline" : 				{
					"source" : [ "obj-9", 7 ],
					"destination" : [ "obj-11", 0 ],
					"hidden" : 0,
					"midpoints" : [  ]
				}

			}
, 			{
				"patchline" : 				{
					"source" : [ "obj-9", 9 ],
					"destination" : [ "obj-1", 0 ],
					"hidden" : 0,
					"midpoints" : [  ]
				}

			}
, 			{
				"patchline" : 				{
					"source" : [ "obj-84", 0 ],
					"destination" : [ "obj-49", 0 ],
					"hidden" : 0,
					"midpoints" : [  ]
				}

			}
, 			{
				"patchline" : 				{
					"source" : [ "obj-82", 0 ],
					"destination" : [ "obj-62", 0 ],
					"hidden" : 0,
					"midpoints" : [  ]
				}

			}
, 			{
				"patchline" : 				{
					"source" : [ "obj-80", 0 ],
					"destination" : [ "obj-61", 0 ],
					"hidden" : 0,
					"midpoints" : [  ]
				}

			}
, 			{
				"patchline" : 				{
					"source" : [ "obj-7", 0 ],
					"destination" : [ "obj-13", 0 ],
					"hidden" : 0,
					"midpoints" : [  ]
				}

			}
, 			{
				"patchline" : 				{
					"source" : [ "obj-62", 0 ],
					"destination" : [ "obj-13", 0 ],
					"hidden" : 0,
					"midpoints" : [  ]
				}

			}
, 			{
				"patchline" : 				{
					"source" : [ "obj-61", 0 ],
					"destination" : [ "obj-13", 0 ],
					"hidden" : 0,
					"midpoints" : [  ]
				}

			}
, 			{
				"patchline" : 				{
					"source" : [ "obj-59", 0 ],
					"destination" : [ "obj-82", 0 ],
					"hidden" : 0,
					"midpoints" : [  ]
				}

			}
, 			{
				"patchline" : 				{
					"source" : [ "obj-59", 0 ],
					"destination" : [ "obj-62", 2 ],
					"hidden" : 0,
					"midpoints" : [  ]
				}

			}
, 			{
				"patchline" : 				{
					"source" : [ "obj-58", 0 ],
					"destination" : [ "obj-80", 0 ],
					"hidden" : 0,
					"midpoints" : [  ]
				}

			}
, 			{
				"patchline" : 				{
					"source" : [ "obj-58", 0 ],
					"destination" : [ "obj-61", 2 ],
					"hidden" : 0,
					"midpoints" : [  ]
				}

			}
, 			{
				"patchline" : 				{
					"source" : [ "obj-51", 0 ],
					"destination" : [ "obj-49", 1 ],
					"hidden" : 0,
					"midpoints" : [  ]
				}

			}
, 			{
				"patchline" : 				{
					"source" : [ "obj-50", 0 ],
					"destination" : [ "obj-49", 1 ],
					"hidden" : 0,
					"midpoints" : [  ]
				}

			}
, 			{
				"patchline" : 				{
					"source" : [ "obj-5", 0 ],
					"destination" : [ "obj-13", 0 ],
					"hidden" : 0,
					"midpoints" : [  ]
				}

			}
, 			{
				"patchline" : 				{
					"source" : [ "obj-49", 0 ],
					"destination" : [ "obj-13", 0 ],
					"hidden" : 0,
					"midpoints" : [  ]
				}

			}
, 			{
				"patchline" : 				{
					"source" : [ "obj-480", 0 ],
					"destination" : [ "obj-34", 2 ],
					"hidden" : 0,
					"midpoints" : [  ]
				}

			}
, 			{
				"patchline" : 				{
					"source" : [ "obj-48", 1 ],
					"destination" : [ "obj-51", 0 ],
					"hidden" : 0,
					"midpoints" : [  ]
				}

			}
, 			{
				"patchline" : 				{
					"source" : [ "obj-48", 0 ],
					"destination" : [ "obj-50", 0 ],
					"hidden" : 0,
					"midpoints" : [  ]
				}

			}
, 			{
				"patchline" : 				{
					"source" : [ "obj-48", 2 ],
					"destination" : [ "obj-5", 0 ],
					"hidden" : 0,
					"midpoints" : [  ]
				}

			}
, 			{
				"patchline" : 				{
					"source" : [ "obj-4", 0 ],
					"destination" : [ "obj-17", 0 ],
					"hidden" : 0,
					"midpoints" : [  ]
				}

			}
, 			{
				"patchline" : 				{
					"source" : [ "obj-34", 1 ],
					"destination" : [ "obj-7", 0 ],
					"hidden" : 0,
					"midpoints" : [  ]
				}

			}
, 			{
				"patchline" : 				{
					"source" : [ "obj-34", 0 ],
					"destination" : [ "obj-49", 2 ],
					"hidden" : 0,
					"midpoints" : [  ]
				}

			}
, 			{
				"patchline" : 				{
					"source" : [ "obj-34", 2 ],
					"destination" : [ "obj-28", 0 ],
					"hidden" : 0,
					"midpoints" : [  ]
				}

			}
, 			{
				"patchline" : 				{
					"source" : [ "obj-34", 3 ],
					"destination" : [ "obj-11", 0 ],
					"hidden" : 0,
					"midpoints" : [  ]
				}

			}
, 			{
				"patchline" : 				{
					"source" : [ "obj-30", 0 ],
					"destination" : [ "obj-28", 0 ],
					"hidden" : 0,
					"midpoints" : [  ]
				}

			}
, 			{
				"patchline" : 				{
					"source" : [ "obj-3", 0 ],
					"destination" : [ "obj-13", 0 ],
					"hidden" : 0,
					"midpoints" : [  ]
				}

			}
, 			{
				"patchline" : 				{
					"source" : [ "obj-28", 0 ],
					"destination" : [ "obj-84", 0 ],
					"hidden" : 0,
					"midpoints" : [  ]
				}

			}
, 			{
				"patchline" : 				{
					"source" : [ "obj-28", 0 ],
					"destination" : [ "obj-62", 1 ],
					"hidden" : 0,
					"midpoints" : [  ]
				}

			}
, 			{
				"patchline" : 				{
					"source" : [ "obj-28", 0 ],
					"destination" : [ "obj-61", 1 ],
					"hidden" : 0,
					"midpoints" : [  ]
				}

			}
, 			{
				"patchline" : 				{
					"source" : [ "obj-28", 0 ],
					"destination" : [ "obj-49", 2 ],
					"hidden" : 0,
					"midpoints" : [  ]
				}

			}
, 			{
				"patchline" : 				{
					"source" : [ "obj-28", 0 ],
					"destination" : [ "obj-34", 1 ],
					"hidden" : 0,
					"midpoints" : [  ]
				}

			}
, 			{
				"patchline" : 				{
					"source" : [ "obj-26", 0 ],
					"destination" : [ "obj-11", 0 ],
					"hidden" : 0,
					"midpoints" : [  ]
				}

			}
, 			{
				"patchline" : 				{
					"source" : [ "obj-20", 0 ],
					"destination" : [ "obj-13", 0 ],
					"hidden" : 0,
					"midpoints" : [  ]
				}

			}
, 			{
				"patchline" : 				{
					"source" : [ "obj-2", 0 ],
					"destination" : [ "obj-3", 0 ],
					"hidden" : 0,
					"midpoints" : [  ]
				}

			}
, 			{
				"patchline" : 				{
					"source" : [ "obj-19", 0 ],
					"destination" : [ "obj-48", 0 ],
					"hidden" : 0,
					"midpoints" : [  ]
				}

			}
, 			{
				"patchline" : 				{
					"source" : [ "obj-19", 0 ],
					"destination" : [ "obj-34", 0 ],
					"hidden" : 0,
					"midpoints" : [  ]
				}

			}
, 			{
				"patchline" : 				{
					"source" : [ "obj-18", 0 ],
					"destination" : [ "obj-19", 0 ],
					"hidden" : 0,
					"midpoints" : [  ]
				}

			}
, 			{
				"patchline" : 				{
					"source" : [ "obj-17", 2 ],
					"destination" : [ "obj-9", 0 ],
					"hidden" : 0,
					"midpoints" : [  ]
				}

			}
, 			{
				"patchline" : 				{
					"source" : [ "obj-17", 0 ],
					"destination" : [ "obj-28", 0 ],
					"hidden" : 0,
					"midpoints" : [  ]
				}

			}
, 			{
				"patchline" : 				{
					"source" : [ "obj-17", 1 ],
					"destination" : [ "obj-28", 0 ],
					"hidden" : 0,
					"midpoints" : [  ]
				}

			}
, 			{
				"patchline" : 				{
					"source" : [ "obj-16", 0 ],
					"destination" : [ "obj-2", 0 ],
					"hidden" : 0,
					"midpoints" : [  ]
				}

			}
, 			{
				"patchline" : 				{
					"source" : [ "obj-15", 0 ],
					"destination" : [ "obj-2", 0 ],
					"hidden" : 0,
					"midpoints" : [  ]
				}

			}
, 			{
				"patchline" : 				{
					"source" : [ "obj-14", 1 ],
					"destination" : [ "obj-16", 0 ],
					"hidden" : 0,
					"midpoints" : [  ]
				}

			}
, 			{
				"patchline" : 				{
					"source" : [ "obj-14", 0 ],
					"destination" : [ "obj-15", 0 ],
					"hidden" : 0,
					"midpoints" : [  ]
				}

			}
, 			{
				"patchline" : 				{
					"source" : [ "obj-12", 0 ],
					"destination" : [ "obj-13", 0 ],
					"hidden" : 0,
					"midpoints" : [  ]
				}

			}
, 			{
				"patchline" : 				{
					"source" : [ "obj-11", 0 ],
					"destination" : [ "obj-12", 0 ],
					"hidden" : 0,
					"midpoints" : [  ]
				}

			}
 ],
		"parameters" : 		{
			"obj-59" : [ "live.numbox[106]", "live.numbox", 0 ],
			"obj-58" : [ "live.numbox[107]", "live.numbox", 0 ],
			"obj-2" : [ "live.toggle[188]", "live.toggle", 0 ],
			"obj-480" : [ "pwm[58]", "pwm", 0 ],
			"obj-11" : [ "live.toggle[259]", "live.toggle", 0 ]
		}

	}

}
